<svg width="298" height="252" viewBox="0 0 298 252" fill="none" xmlns="http://www.w3.org/2000/svg">
<rect width="298" height="252" fill="#1E1E1E"/>
<rect x="17" y="9" width="281" height="243" fill="#FFFAFA"/>
<path d="M0.5 0L289.732 0.592195L289.233 244.116L0.0013917 243.523L0.5 0Z" fill="#0C0B0B"/>
<rect x="34" y="19" width="219" height="203" fill="#D9D9D9"/>
<rect x="27" y="19" width="226" height="156" fill="#0C0B0B"/>
<g filter="url(#filter0_b_0_1)">
<path d="M126.548 65.3778C125.98 59.6487 123.542 55.1979 119.233 52.0256C114.924 48.8532 109.077 47.267 101.69 47.267C96.6714 47.267 92.4337 47.9773 88.9773 49.3977C85.5208 50.7708 82.8693 52.6884 81.0227 55.1506C79.2235 57.6127 78.3239 60.4062 78.3239 63.5312C78.2292 66.1354 78.7737 68.4081 79.9574 70.3494C81.1884 72.2907 82.8693 73.9716 85 75.392C87.1307 76.7651 89.5928 77.9725 92.3864 79.0142C95.1799 80.0085 98.1629 80.8608 101.335 81.571L114.403 84.696C120.748 86.1165 126.572 88.0104 131.875 90.3778C137.178 92.7453 141.771 95.6572 145.653 99.1136C149.536 102.57 152.543 106.642 154.673 111.33C156.851 116.017 157.964 121.391 158.011 127.452C157.964 136.353 155.691 144.071 151.193 150.605C146.742 157.092 140.303 162.134 131.875 165.733C123.494 169.284 113.385 171.06 101.548 171.06C89.8059 171.06 79.5786 169.26 70.8665 165.662C62.2017 162.063 55.4309 156.737 50.554 149.682C45.7244 142.58 43.1913 133.796 42.9545 123.332H72.7131C73.0445 128.209 74.4413 132.281 76.9034 135.548C79.4129 138.768 82.7509 141.206 86.9176 142.864C91.1316 144.473 95.8902 145.278 101.193 145.278C106.402 145.278 110.923 144.521 114.759 143.006C118.641 141.491 121.648 139.384 123.778 136.685C125.909 133.986 126.974 130.884 126.974 127.381C126.974 124.114 126.004 121.367 124.062 119.142C122.169 116.917 119.375 115.023 115.682 113.46C112.036 111.898 107.562 110.477 102.259 109.199L86.4205 105.222C74.1572 102.239 64.4744 97.5748 57.3722 91.2301C50.2699 84.8854 46.7424 76.339 46.7898 65.5909C46.7424 56.7841 49.0862 49.09 53.821 42.5085C58.6032 35.9271 65.161 30.7898 73.4943 27.0966C81.8277 23.4034 91.2973 21.5568 101.903 21.5568C112.699 21.5568 122.121 23.4034 130.17 27.0966C138.267 30.7898 144.564 35.9271 149.062 42.5085C153.561 49.09 155.881 56.7131 156.023 65.3778H126.548Z" fill="white"/>
</g>
<g filter="url(#filter1_b_0_1)">
<path d="M204.548 65.3778C203.98 59.6487 201.542 55.1979 197.233 52.0256C192.924 48.8532 187.077 47.267 179.69 47.267C174.671 47.267 170.434 47.9773 166.977 49.3977C163.521 50.7708 160.869 52.6884 159.023 55.1506C157.223 57.6127 156.324 60.4062 156.324 63.5312C156.229 66.1354 156.774 68.4081 157.957 70.3494C159.188 72.2907 160.869 73.9716 163 75.392C165.131 76.7651 167.593 77.9725 170.386 79.0142C173.18 80.0085 176.163 80.8608 179.335 81.571L192.403 84.696C198.748 86.1165 204.572 88.0104 209.875 90.3778C215.178 92.7453 219.771 95.6572 223.653 99.1136C227.536 102.57 230.543 106.642 232.673 111.33C234.851 116.017 235.964 121.391 236.011 127.452C235.964 136.353 233.691 144.071 229.193 150.605C224.742 157.092 218.303 162.134 209.875 165.733C201.494 169.284 191.385 171.06 179.548 171.06C167.806 171.06 157.579 169.26 148.866 165.662C140.202 162.063 133.431 156.737 128.554 149.682C123.724 142.58 121.191 133.796 120.955 123.332H150.713C151.045 128.209 152.441 132.281 154.903 135.548C157.413 138.768 160.751 141.206 164.918 142.864C169.132 144.473 173.89 145.278 179.193 145.278C184.402 145.278 188.923 144.521 192.759 143.006C196.641 141.491 199.648 139.384 201.778 136.685C203.909 133.986 204.974 130.884 204.974 127.381C204.974 124.114 204.004 121.367 202.062 119.142C200.169 116.917 197.375 115.023 193.682 113.46C190.036 111.898 185.562 110.477 180.259 109.199L164.42 105.222C152.157 102.239 142.474 97.5748 135.372 91.2301C128.27 84.8854 124.742 76.339 124.79 65.5909C124.742 56.7841 127.086 49.09 131.821 42.5085C136.603 35.9271 143.161 30.7898 151.494 27.0966C159.828 23.4034 169.297 21.5568 179.903 21.5568C190.699 21.5568 200.121 23.4034 208.17 27.0966C216.267 30.7898 222.564 35.9271 227.062 42.5085C231.561 49.09 233.881 56.7131 234.023 65.3778H204.548Z" fill="white"/>
</g>
<circle cx="122.5" cy="125.5" r="4.5" fill="#0C0B0B"/>
<ellipse cx="120" cy="132.5" rx="5" ry="6.5" fill="#131212"/>
<rect x="27" y="173" width="226" height="49" fill="white"/>
<path d="M35.5803 213V194.818H47.6186V197.988H39.4244V202.32H46.8196V205.489H39.4244V213H35.5803ZM100.204 213V194.818H104.048V209.831H111.843V213H100.204ZM164.389 213V194.818H176.64V197.988H168.233V202.32H176.01V205.489H168.233V209.831H176.676V213H164.389ZM233.301 194.818L236.967 201.015H237.109L240.794 194.818H245.135L239.586 203.909L245.259 213H240.838L237.109 206.794H236.967L233.239 213H228.835L234.526 203.909L228.942 194.818H233.301Z" fill="#131212"/>
<defs>
<filter id="filter0_b_0_1" x="38.9545" y="17.5568" width="123.057" height="157.503" filterUnits="userSpaceOnUse" color-interpolation-filters="sRGB">
<feFlood flood-opacity="0" result="BackgroundImageFix"/>
<feGaussianBlur in="BackgroundImageFix" stdDeviation="2"/>
<feComposite in2="SourceAlpha" operator="in" result="effect1_backgroundBlur_0_1"/>
<feBlend mode="normal" in="SourceGraphic" in2="effect1_backgroundBlur_0_1" result="shape"/>
</filter>
<filter id="filter1_b_0_1" x="116.955" y="17.5568" width="123.057" height="157.503" filterUnits="userSpaceOnUse" color-interpolation-filters="sRGB">
<feFlood flood-opacity="0" result="BackgroundImageFix"/>
<feGaussianBlur in="BackgroundImageFix" stdDeviation="2"/>
<feComposite in2="SourceAlpha" operator="in" result="effect1_backgroundBlur_0_1"/>
<feBlend mode="normal" in="SourceGraphic" in2="effect1_backgroundBlur_0_1" result="shape"/>
</filter>
</defs>
</svg>
